<svg version="1.2" xmlns="http://www.w3.org/2000/svg" viewBox="0 0 1508 1903" width="1508" height="1903"><style>.a{fill:#9b0a0d}.b{fill:#bd1e1f}</style><path class="a" d="m838.4 1811.2c-27 13.3-56.7 27.9-65.9 31.7l-16.9 7.4-40.1-18.7c-154.7-72.1-262.7-146.3-371.7-255-92-92-153.2-177.8-210.5-294.2-102.4-208.7-141-440.5-132.1-794.1 1.8-76.3 8-200.1 10.1-204 0.3-0.3 25-5.3 55.2-11 301.7-59 504.4-124.4 671-216.4l16.3-8.9 72.7 35.9c157.7 77.8 317.1 127.4 583.1 181.7 47.2 9.5 86.7 19 87.9 20.8 9.5 15.4 14.5 407.3 6.5 494.3-14.8 157.3-36.8 266-77.2 381.5-29.4 84.6-72.4 170.4-123.8 247.9-110.4 165.9-270.4 304-464.6 401.1zm-130.6-66.8c30.9 16 47.8 22.8 51.9 21.6 3.3-0.9 28-13 54.7-27 181.7-94.1 318.8-213.1 421.5-366 34.8-51.7 39.2-59.7 65.9-113.1 74-148.5 110.2-298.7 124.7-519.3 3.6-54 2.1-314.4-2-368.7l-1.8-22.9-12.5-1.7c-15.1-2.4-96.5-19.6-150.2-31.5-177.5-39.5-328.1-90-451.9-151.1l-52.8-26.2-45.4 22.9c-79.6 40.4-214.4 91.4-306.4 116.4-90.3 24.3-110.1 29.1-230.1 54.6-12.2 2.7-36.2 7.7-53.4 11.6l-31.2 6.8-2.1 13.7c-3.5 24.6-8.3 157-8.3 228 0 425.4 98.3 710.4 320.3 932.2 89.7 89 184.4 156.7 309.1 219.7z"/><path class="b" d="m868.1 1640.2c-17.2 10.3-49.9 28.5-72.7 40.3l-41.6 21.7-17.8-9.2c-80.8-40.7-153.8-86.4-218.2-136.9-30-23.4-129.2-117.5-126.5-120.2 0.9-0.6-3.2-5.3-8.9-10.1-5.6-5-9.5-9.8-8.9-10.7 0.9-0.6-1.5-3.8-5-6.5-8.1-6.2-38.3-48.1-37.1-51.1 0.5-1.2-2.1-4.4-5.7-6.8-3.8-2.7-6.8-6.8-6.8-9.2 0-2.4-1.5-4.2-3.6-4.2-1.8 0-2.7-0.9-1.5-1.7 0.9-0.9-0.9-4.5-4.1-7.5-3.3-3.2-5.1-7.1-4.2-8.3 0.9-1.5-0.6-3.5-3.2-4.4-2.4-0.9-3.9-3-2.7-4.8 0.9-1.8 0.3-2.9-1.5-2.9-1.8 0-2.7-1.2-1.5-2.7 0.9-1.5-0.6-4.2-3.5-6-3-1.7-4.2-2.9-3-3.2 1.2 0-0.3-3-3.6-6.3-3.2-3.5-5.3-7.7-4.4-8.9 0.9-1.4 0-2.6-1.8-2.6-1.8 0-2.4-1.2-1.5-3 0.9-1.8 0.6-3-0.6-3-3.8 0-27.9-46.3-25.5-48.7 0.9-0.9 0.3-1.7-1.8-1.7-2.1 0-2.7-1.2-1.8-3 0.9-1.8 0.6-3-0.6-3-1.5 0-2.6-2.9-2.9-6.5-0.3-3.9-2.1-7.1-3.9-7.7-1.5-0.6-2.4-2.4-1.5-3.9 1.2-1.5 0.3-2.7-1.5-2.7-1.8 0-2.6-1.1-1.5-2.6 0.9-1.5 0.3-3.3-1.1-3.9-5.7-2.1-37.2-87-34.2-92 0.9-1.2 0.3-2.4-1.2-2.4-1.5 0-3.5-2.4-4.4-5-13.7-49.3-25.9-100.4-24.7-103.7 0.9-2.3 0.6-4.1-0.6-4.1-4.7 0-26.4-139.8-23.4-151.7 0.9-3 0.3-5.7-1.5-5.7-2.1 0-2.4-5.3-1.2-14.8 1.5-10.1 0.9-14.8-1.5-14.8-2 0-2.9-7.8-2.3-24.7 0.3-13.3-0.3-26.7-1.8-29.7-1.2-2.9-1.5-13.3-0.3-23.1 0.9-10.7 0.6-17.5-1.2-17.5-1.8 0-3-37.2-3-102.5 0-58.2 1.2-102.4 2.7-102.4 1.5 0 2.1-13.6 1.2-31.2-1.2-19-0.6-31.1 1.2-31.1 1.5 0 2.6-9.5 2.6-21.4-0.3-21.1 0-21.7 7.2-21.7 4.1 0 8-0.9 8.9-1.8 2.6-3.5 58.8-14.5 63.5-12.7 2.7 0.9 4.8 0.6 4.8-1.2 0-1.5 8.3-4.5 18.7-6.6 91.4-17.8 240.4-60.2 333.1-95 46-17.2 123.5-51.3 152.2-67 10.1-5.7 20.5-10.1 23.2-10.1 5.6 0 46.9 20.7 48.1 24 0.6 1.5 2.4 2.1 3.9 0.9 1.4-0.9 2.6 0 2.6 1.5 0 1.8 0.9 3 2.4 2.7 3.6-1.5 68.9 28.2 68.9 30.8 0 1.5 1.2 2.1 2.7 1.2 1.1-0.9 14.2 3.3 28.8 8.9 69.1 27.3 200.6 67.4 286.1 87.3 22 5.1 48.1 11.3 57.9 13.7 9.8 2.3 22.6 5 28.2 5.6 5.7 0.9 26.5 5.3 46.1 9.8l35.6 8 2.1 22.3c4.4 47.2 6.2 257.4 2.6 319.7-13.9 244.9-63.5 423.4-160 578.9-85.2 136.9-191.5 239.3-342 330.5z"/></svg>